<svg width="20" height="20" viewBox="0 0 20 20" fill="none" xmlns="http://www.w3.org/2000/svg">
  <path
    d="M8.42369 5.39633C8.12491 5.31485 7.62242 5.01607 7.40512 4.89384C6.68533 4.51357 5.84331 4.43209 5.01487 4.66296C3.6432 5.02965 2.40733 6.14329 1.63322 7.74584C0.261547 10.5163 0.696137 13.6943 2.62463 14.9981C3.15429 15.3512 3.76543 15.5277 4.40373 15.5277C4.70251 15.5277 4.98771 15.487 5.28649 15.4055C6.60384 15.0524 7.81255 14.0066 8.60024 12.5127C9.52375 12.1325 10.5831 12.1189 11.5201 12.472C12.3078 13.9387 13.4758 14.9573 14.766 15.2968C15.7031 15.5277 16.6266 15.3919 17.3871 14.8758C19.2884 13.5856 19.7366 10.462 18.3921 7.75942C17.6044 6.19761 16.3957 5.08397 15.0512 4.73087C14.2499 4.52715 13.4622 4.58148 12.756 4.921C12.5116 5.04323 12.0226 5.45066 10.1621 5.45066V3.33203"
    stroke="currentColor" stroke-miterlimit="10" stroke-linecap="round" stroke-linejoin="round" />
  <path
    d="M12.7564 8.6021C12.6205 8.87372 12.5391 9.1725 12.5391 9.49844C12.5391 10.5849 13.4218 11.4813 14.4947 11.4813C15.5676 11.4813 16.4504 10.5849 16.4504 9.49844C16.4504 8.41197 15.5676 7.51562 14.4947 7.51562"
    stroke="currentColor" stroke-miterlimit="10" stroke-linecap="round" stroke-linejoin="round" />
  <path d="M5.28711 7.8418V11.3593" stroke="currentColor" stroke-miterlimit="10"
    stroke-linecap="round"
    stroke-linejoin="round" />
  <path d="M3.52148 9.60742H7.05253" stroke="currentColor" stroke-miterlimit="10"
    stroke-linecap="round"
    stroke-linejoin="round" />
</svg>