<svg width="20" height="20" viewBox="0 0 20 20" fill="none" xmlns="http://www.w3.org/2000/svg">
  <path d="M12.4404 3.67969L6.89453 9.23945" stroke="currentColor" stroke-miterlimit="10"
    stroke-linecap="round" />
  <path d="M13.1066 5.19336L10.8827 7.41727" stroke="currentColor" stroke-miterlimit="10"
    stroke-linecap="round" />
  <path d="M8.57547 5.19336L6.35156 7.41727" stroke="currentColor" stroke-miterlimit="10"
    stroke-linecap="round" />
  <path
    d="M17.4994 11.2864V2.73822C17.4994 2.15445 17.0268 1.66797 16.4291 1.66797H3.55827C2.9745 1.66797 2.48802 2.14055 2.48802 2.73822V11.2864L0.833984 16.5403H19.1673L17.4994 11.2864Z"
    stroke="currentColor" stroke-miterlimit="10" stroke-linecap="round" stroke-linejoin="round" />
  <path d="M2.48828 11.2842H16.9576" stroke="currentColor" stroke-miterlimit="10"
    stroke-linecap="round" />
  <path d="M11.4119 13.2324H8.13164L7.96484 14.8726H11.5787L11.4119 13.2324Z" stroke="currentColor"
    stroke-miterlimit="10" stroke-linecap="round" stroke-linejoin="round" />
  <path
    d="M17.4994 18.206H2.50191C1.58455 18.206 0.833984 17.4554 0.833984 16.5381H19.1673C19.1673 17.4554 18.4168 18.206 17.4994 18.206Z"
    stroke="currentColor" stroke-miterlimit="10" stroke-linecap="round" stroke-linejoin="round" />
</svg>