<svg width="17" height="17" viewBox="0 0 17 17" fill="none" xmlns="http://www.w3.org/2000/svg">
  <path
    d="M8.14069 14.7898C4.33766 14.7898 1.24414 11.6962 1.24414 7.89321C1.24414 5.31004 2.67255 2.96411 4.97214 1.77183C5.06416 1.72364 5.16792 1.70246 5.27146 1.71073C5.37501 1.71901 5.47409 1.7564 5.55729 1.8186C5.64048 1.88079 5.70438 1.96524 5.74162 2.06221C5.77886 2.15918 5.78791 2.2647 5.76773 2.36659C5.69584 2.73319 5.65926 3.10584 5.65849 3.47942C5.65849 6.6739 8.25711 9.27252 11.4516 9.27252C12.3846 9.27252 13.2795 9.05404 14.112 8.62149C14.2041 8.57355 14.3079 8.55259 14.4114 8.56101C14.5149 8.56942 14.6139 8.60688 14.6971 8.66906C14.7802 8.73124 14.8442 8.81563 14.8815 8.91253C14.9188 9.00942 14.9281 9.11489 14.9081 9.2168C14.2792 12.4455 11.4334 14.7898 8.14069 14.7898ZM4.55614 3.3459C3.86684 3.88624 3.3097 4.57652 2.92703 5.36434C2.54435 6.15216 2.34619 7.01681 2.34759 7.89266C2.34759 11.0871 4.94621 13.6858 8.14069 13.6858C10.533 13.6858 12.6444 12.2132 13.5123 10.0604C12.8491 10.27 12.1589 10.3754 11.451 10.3754C7.648 10.3754 4.55449 7.2819 4.55449 3.47887C4.55449 3.43473 4.55504 3.39004 4.55614 3.3459Z"
    fill="currentColor" />
</svg>