<svg width="20" height="20" viewBox="0 0 20 20" fill="none" xmlns="http://www.w3.org/2000/svg">
  <path
    d="M4.66667 13C3.2 13 2 11.7143 2 10.1429C2 8.85714 3.73333 4.35714 4.06667 3.42857C4.13333 3.14286 4.4 3 4.66667 3C4.93333 3 5.2 3.14286 5.26667 3.42857C5.6 4.35714 7.33333 8.85714 7.33333 10.1429C7.33333 11.7143 6.13333 13 4.66667 13ZM4.66667 5.64286C4 7.57143 3.33333 9.57143 3.33333 10.1429C3.33333 10.9286 3.93333 11.5714 4.66667 11.5714C5.4 11.5714 6 10.9286 6 10.1429C6 9.57143 5.33333 7.57143 4.66667 5.64286ZM15.3333 13C13.8667 13 12.6667 11.7143 12.6667 10.1429C12.6667 8.85714 14.4 4.35714 14.7333 3.42857C14.8 3.14286 15.0667 3 15.3333 3C15.6 3 15.8667 3.14286 15.9333 3.42857C16.2667 4.35714 18 8.85714 18 10.1429C18 11.7143 16.8 13 15.3333 13ZM15.3333 5.64286C14.6667 7.5 14 9.57143 14 10.1429C14 10.9286 14.6 11.5714 15.3333 11.5714C16.0667 11.5714 16.6667 10.9286 16.6667 10.1429C16.6667 9.57143 16 7.57143 15.3333 5.64286Z"
    fill="currentColor" />
  <path
    d="M15.3333 4.7H4.66667C4.26667 4.7 4 4.36 4 3.85C4 3.34 4.26667 3 4.66667 3H15.3333C15.7333 3 16 3.34 16 3.85C16 4.36 15.7333 4.7 15.3333 4.7Z"
    fill="currentColor" />
  <path
    d="M9.85 17C9.34 17 9 16.72 9 16.3V3.7C9 3.28 9.34 3 9.85 3C10.36 3 10.7 3.28 10.7 3.7V16.3C10.7 16.72 10.36 17 9.85 17Z"
    fill="currentColor" />
  <path
    d="M14 17H6C5.6 17 5.33333 16.7091 5.33333 16.2727C5.33333 15.8364 5.6 15.5455 6 15.5455H14C14.4 15.5455 14.6667 15.8364 14.6667 16.2727C14.6667 16.7091 14.4 17 14 17ZM6.66667 10.4545H2.66667C2.26667 10.4545 2 10.1636 2 9.72727C2 9.29091 2.26667 9 2.66667 9H6.66667C7.06667 9 7.33333 9.29091 7.33333 9.72727C7.33333 10.1636 7.06667 10.4545 6.66667 10.4545ZM17.3333 10.4545H13.3333C12.9333 10.4545 12.6667 10.1636 12.6667 9.72727C12.6667 9.29091 12.9333 9 13.3333 9H17.3333C17.7333 9 18 9.29091 18 9.72727C18 10.1636 17.7333 10.4545 17.3333 10.4545Z"
    fill="currentColor" />
</svg>